<svg width="50" height="33" viewBox="0 0 84 76" fill="none" xmlns="http://www.w3.org/2000/svg">
<path d="M39.5 8.7C39.5 7.6 38.6 6.8 37.6 6.8C20.6 6.8 6.8 20.6 6.8 37.6C6.8 38.7 7.7 39.5 8.7 39.5C9.7 39.5 10.6 38.6 10.6 37.6C10.6 22.8 22.7 10.7 37.5 10.7C38.6 10.6 39.5 9.8 39.5 8.7Z" fill="black"/>
<path d="M45.7 0H38.5C38.2 0 37.9 0 37.5 0C16.9 0 0 16.8 0 37.5C0 58.2 16.8 75.1 37.6 75.1C37.9 75.1 38.2 75.1 38.6 75.1V75.2H45.8C66.5 75.2 83.4 58.3 83.4 37.6C83.3 16.8 66.5 0 45.7 0ZM61.4 66.5C62.1 65.9 62.8 65.3 63.5 64.7H65.8C64.8 65.4 63.8 66.1 62.8 66.7V66.5H61.4ZM67 60.8C67.6 60.1 68.1 59.4 68.6 58.7H72C71.4 59.4 70.8 60.2 70.1 60.8H67ZM70.9 54.8C71.3 54.1 71.6 53.4 71.9 52.7H75.9C75.5 53.4 75.1 54.1 74.7 54.8H70.9ZM66.4 11C67.2 11.5 67.9 12.2 68.7 12.8H65.9C65.3 12.2 64.8 11.5 64.2 11H66.4ZM72.2 16.7C72.7 17.4 73.3 18.1 73.8 18.8H70.2C69.8 18.1 69.3 17.4 68.9 16.7H72.2ZM76 22.7C76.3 23.4 76.7 24.1 77 24.8H72.9C72.6 24.1 72.4 23.4 72.1 22.7H76ZM73.4 48.8C73.6 48.1 73.8 47.4 74 46.7H78.2C78 47.4 77.8 48.1 77.5 48.8H73.4ZM74.8 42.9C74.9 42.2 75 41.5 75 40.8H79.3C79.2 41.5 79.1 42.2 79 42.9H74.8ZM75.1 36.9C75.1 36.2 75.1 35.5 75 34.8H79.3C79.4 35.5 79.4 36.2 79.4 36.9H75.1ZM74.5 30.9C74.4 30.2 74.2 29.5 74.1 28.8H78.3C78.5 29.5 78.7 30.2 78.8 30.9H74.5ZM3.9 37.5C3.9 18.9 19 3.8 37.6 3.8C56.2 3.8 71.3 18.9 71.3 37.5C71.3 56.1 56.2 71.2 37.6 71.2C19 71.2 3.9 56.1 3.9 37.5Z" fill="black"/>
<path d="M39.8 28.1C42.9 28.1 45.4 29.4 47.1 31.8L53 26.3C51.1 23.7 47.7 21.1 42.5 20.3V16H34.7V20.6C26.6 22.5 21.2 29.2 21.2 38.1C21.2 47 26.6 53.8 34.7 55.6V59.8H42.5V55.9C47.7 55.2 51.1 52.6 53 49.9L47 44.3C45.4 46.6 42.9 48 39.7 48C34.2 48 30.4 43.9 30.4 38C30.5 32 34.3 28.1 39.8 28.1Z" fill="black"/>
</svg>
